<svg width="63" height="48" viewBox="0 0 63 48" fill="none" xmlns="http://www.w3.org/2000/svg">
<path d="M45.8729 20.7441C45.4124 21.1428 45.4124 21.8572 45.8729 22.2559L56.8453 31.7584C57.493 32.3192 58.5 31.8592 58.5 31.0024L58.5 11.9976C58.5 11.1408 57.493 10.6808 56.8453 11.2416L45.8729 20.7441Z" fill="url(#paint0_linear_53483_6842)"/>
<path d="M24 0C20.7619 0 17.6172 0.636635 14.6591 1.88795C11.7997 3.09536 9.23668 4.82415 7.03041 7.03042C4.82415 9.23668 3.10085 11.7997 1.88795 14.659C0.636635 17.6227 0 20.7674 0 24C0 27.2381 0.636635 30.3828 1.88795 33.3409C3.09536 36.2003 4.82415 38.7633 7.03041 40.9696C9.23119 43.1703 11.7997 44.8992 14.6591 46.112C17.6227 47.3634 20.7674 48 24 48C27.2381 48 30.3828 47.3634 33.3409 46.112C36.2003 44.9046 38.7633 43.1758 40.9696 40.9696C43.1703 38.7688 44.8992 36.2003 46.112 33.3409C47.3634 30.3773 48 27.2326 48 24V0H24Z" fill="url(#paint1_linear_53483_6842)"/>
<path d="M37.1825 16.2556C35.4866 14.5652 33.1541 13.5115 30.5637 13.5115H17.617C12.8313 13.5115 8.67118 17.0239 8.12785 21.7767C7.78758 24.7898 8.88523 27.5558 10.8116 29.4822C12.502 31.1726 14.8399 32.2263 17.4304 32.2263H24.6913V35.7223V36.787V37.6981L26.3268 36.6169L34.4274 31.3811C37.638 29.2901 39.9211 26.6558 39.9211 22.8634C39.9266 20.2894 38.8729 17.9514 37.1825 16.2556ZM17.0023 26.2277C15.3339 26.2222 13.9234 24.8337 13.874 23.1707C13.8246 21.3981 15.2461 19.9382 17.0133 19.9382C18.753 19.9382 20.1525 21.3487 20.1525 23.0775C20.1525 24.8227 18.7421 26.2332 17.0023 26.2277ZM34.2682 23.6976C34.0323 24.9325 33.0389 25.9313 31.7985 26.1618C29.5868 26.5789 27.6824 24.68 28.0995 22.4628C28.3355 21.2279 29.3288 20.2291 30.5637 19.9931C32.7864 19.5814 34.6908 21.4859 34.2682 23.6976Z" fill="white"/>
<defs>
<linearGradient id="paint0_linear_53483_6842" x1="54.0002" y1="7.99873" x2="54.0002" y2="34.998" gradientUnits="userSpaceOnUse">
<stop offset="0.0385" stop-color="#EF4337"/>
<stop offset="1" stop-color="#FBB043"/>
</linearGradient>
<linearGradient id="paint1_linear_53483_6842" x1="-0.00225017" y1="24.0005" x2="47.9964" y2="24.0005" gradientUnits="userSpaceOnUse">
<stop offset="0.0385" stop-color="#EF4337"/>
<stop offset="1" stop-color="#FBB043"/>
</linearGradient>
</defs>
</svg>
